<svg xmlns="http://www.w3.org/2000/svg" xmlns:xlink="http://www.w3.org/1999/xlink" version="1.1" width="256" height="256" viewBox="0 0 256 256" xml:space="preserve">

<defs>
</defs>
<g style="stroke: none; stroke-width: 0; stroke-dasharray: none; stroke-linecap: butt; stroke-linejoin: miter; stroke-miterlimit: 10; fill: none; fill-rule: nonzero; opacity: 1;" transform="translate(1.4065934065934016 1.4065934065934016) scale(2.81 2.81)" >
	<path d="M 72.38 46.438 c -0.147 0.26 -0.322 0.509 -0.554 0.723 C 72.058 46.947 72.233 46.699 72.38 46.438 z" style="stroke: none; stroke-width: 1; stroke-dasharray: none; stroke-linecap: butt; stroke-linejoin: miter; stroke-miterlimit: 10; fill: rgb(0,71,244); fill-rule: nonzero; opacity: 1;" transform=" matrix(1 0 0 1 0 0) " stroke-linecap="round" />
	<path d="M 55.599 43.97 c 0.301 0.277 0.451 0.654 0.451 1.03 c 5.399 1.977 10.983 1.859 16.722 0 c 0 -0.79 -0.316 -1.58 -0.947 -2.162 L 26.216 0.798 c -1.225 -1.129 -3.132 -1.051 -4.261 0.174 l -3.93 4.263 c -1.129 1.225 -1.051 3.132 0.173 4.261 L 55.599 43.97 z" style="stroke: none; stroke-width: 1; stroke-dasharray: none; stroke-linecap: butt; stroke-linejoin: miter; stroke-miterlimit: 10; fill: rgb(255,197,54); fill-rule: nonzero; opacity: 1;" transform=" matrix(1 0 0 1 0 0) " stroke-linecap="round" />
	<path d="M 55.599 46.03 c 0.301 -0.277 0.451 -0.654 0.451 -1.03 h 16.722 c 0 0.79 -0.316 1.58 -0.947 2.162 l -45.609 42.04 c -1.225 1.129 -3.132 1.051 -4.261 -0.174 l -3.93 -4.263 c -1.129 -1.225 -1.051 -3.132 0.173 -4.261 L 55.599 46.03 z" style="stroke: none; stroke-width: 1; stroke-dasharray: none; stroke-linecap: butt; stroke-linejoin: miter; stroke-miterlimit: 10; fill: rgb(232,167,54); fill-rule: nonzero; opacity: 1;" transform=" matrix(1 0 0 1 0 0) " stroke-linecap="round" />
</g>
</svg>