<?xml version="1.0" encoding="utf-8"?>
<!-- Generator: Adobe Illustrator 28.5.0, SVG Export Plug-In . SVG Version: 6.00 Build 0)  -->
<svg version="1.0" id="katman_1" xmlns="http://www.w3.org/2000/svg" xmlns:xlink="http://www.w3.org/1999/xlink" x="0px" y="0px"
	 viewBox="0 0 841.89 595.28" style="enable-background:new 0 0 841.89 595.28;" xml:space="preserve">
<style type="text/css">
	.st0{fill-rule:evenodd;clip-rule:evenodd;}
</style>
<path d="M541.9,223.53h127.77v23.58h-50.69v124.07h-25.35V247.11H541.9V223.53z"/>
<path d="M331.76,223.53v23.58H229.34v37.94h82.37v23.58h-82.37v38.96h102.42v23.58H203.99V247.11h-0.01v-23.58H331.76z"/>
<path d="M395.56,223.59h-33.17l118.8,147.65h33.26l-59.41-73.78l59.31-73.77l-33.17,0.05l-42.75,53.09L395.56,223.59z"/>
<path d="M429.59,329.06l-16.61-20.65l-50.69,62.95h33.26L429.59,329.06z"/>
<path class="st0" d="M204.88,371.18L85.93,223.47H54.25v147.65h25.34V255.03l93.45,116.15H204.88z"/>
<path d="M675.37,370.28c-1.86,0-3.44-0.64-4.76-1.93c-1.32-1.29-1.98-2.84-1.96-4.69c-0.02-1.79,0.64-3.33,1.96-4.62
	c1.32-1.29,2.9-1.93,4.76-1.93c1.79,0,3.35,0.64,4.67,1.93c1.34,1.29,2.01,2.83,2.03,4.62c-0.02,1.22-0.33,2.33-0.95,3.33
	c-0.63,1.02-1.44,1.81-2.46,2.39C677.67,369.98,676.57,370.28,675.37,370.28z"/>
<path d="M718.62,308.08h11.23v43.27c-0.02,3.98-0.88,7.38-2.56,10.24c-1.7,2.86-4.05,5.04-7.07,6.58c-3.01,1.52-6.53,2.3-10.53,2.3
	c-3.66,0-6.94-0.66-9.86-1.95c-2.92-1.29-5.24-3.21-6.94-5.75c-1.72-2.54-2.56-5.7-2.56-9.49h11.25c0.02,1.66,0.39,3.1,1.12,4.3
	c0.72,1.2,1.72,2.12,2.99,2.76c1.29,0.64,2.76,0.96,4.43,0.96c1.8,0,3.35-0.37,4.6-1.13c1.25-0.74,2.22-1.86,2.89-3.35
	c0.65-1.47,1-3.3,1.01-5.47V308.08z"/>
<path d="M776.06,325c-0.27-2.62-1.48-4.67-3.57-6.13c-2.11-1.47-4.84-2.2-8.19-2.2c-2.35,0-4.38,0.36-6.06,1.05
	c-1.68,0.71-2.99,1.66-3.88,2.86c-0.89,1.2-1.34,2.57-1.37,4.11c0,1.29,0.31,2.4,0.91,3.33c0.6,0.95,1.41,1.74,2.46,2.39
	c1.03,0.66,2.18,1.2,3.44,1.64c1.27,0.44,2.54,0.81,3.81,1.12l5.86,1.44c2.35,0.54,4.64,1.27,6.82,2.2
	c2.18,0.91,4.16,2.08,5.89,3.49c1.74,1.4,3.11,3.1,4.12,5.08c1.01,1.98,1.53,4.3,1.53,6.97c0,3.6-0.93,6.77-2.8,9.51
	c-1.87,2.72-4.57,4.86-8.1,6.4c-3.52,1.52-7.78,2.3-12.79,2.3c-4.84,0-9.07-0.74-12.62-2.23c-3.57-1.47-6.35-3.64-8.36-6.48
	c-2.01-2.84-3.09-6.31-3.25-10.39h11.13c0.15,2.13,0.84,3.91,2.01,5.35c1.18,1.42,2.73,2.47,4.62,3.18
	c1.91,0.69,4.03,1.05,6.39,1.05c2.46,0,4.62-0.37,6.49-1.1c1.85-0.73,3.31-1.74,4.36-3.06c1.07-1.3,1.6-2.84,1.61-4.6
	c-0.02-1.61-0.5-2.94-1.43-3.99c-0.94-1.05-2.25-1.93-3.92-2.64c-1.68-0.71-3.64-1.35-5.87-1.91l-7.11-1.79
	c-5.13-1.3-9.2-3.28-12.18-5.94c-2.99-2.66-4.46-6.18-4.46-10.59c0-3.62,1-6.8,3.01-9.53c1.99-2.72,4.72-4.84,8.17-6.35
	c3.47-1.52,7.38-2.27,11.74-2.27c4.43,0,8.31,0.74,11.66,2.27c3.35,1.51,5.98,3.6,7.88,6.28c1.91,2.67,2.9,5.74,2.95,9.21H776.06z"
	/>
</svg>
